<svg version="1.1" xmlns="http://www.w3.org/2000/svg" style="display: block;" viewBox="0 0 1260 1200" width="315" height="300">
<path transform="translate(0,0)" fill="rgb(255,255,255)" d="M 0 0 L 1260 0 L 1260 1200 L 0 1200 L 0 0 z"/>
<path transform="translate(0,0)" fill="rgb(0,94,226)" d="M 737.057 49.4028 C 749.833 48.7499 762.091 50.4814 774.048 55.1605 C 796.333 63.8804 811.282 81.6227 820.577 103.077 C 857.58 188.488 819.411 329.072 786.921 412.91 C 778.629 434.091 769.943 455.116 760.867 475.973 C 754.506 490.264 747.359 504.255 741.638 518.819 C 754.011 533.793 765.16 550.492 776.783 566.1 L 856.473 673.779 L 1094.08 993.863 L 1161.46 1084.71 C 1172.1 1099.1 1185.73 1121.26 1198.94 1132.87 C 1186.01 1134.7 1172.45 1134 1159.41 1134 L 1099.67 1133.96 C 1045.57 1133.92 991.106 1135.4 937.047 1133.74 L 815.547 967.567 C 803.216 948.054 785.966 926.99 772.151 908.006 L 677.341 778.099 C 663.007 758.456 643.726 736.489 632.521 715.378 C 621.531 727.876 613.122 743.77 604.07 757.753 C 585.129 787.012 565.152 818.61 543.226 845.612 C 523.67 846.501 503.71 846.428 484.154 845.525 C 505.544 823.156 523.59 794.613 540.713 768.943 C 611.036 663.522 669.117 547.29 704.957 425.499 C 716.251 387.121 726.014 346.476 728.855 306.491 C 731.771 265.444 733.317 209.69 704.176 176.669 C 667.796 135.446 609.789 159.053 571.115 183.041 C 564.159 187.355 542.456 204.56 535.93 204.167 C 535.571 203.386 535.165 202.596 534.843 201.8 C 532.232 195.357 525.254 188.694 520.502 183.562 C 534.746 172.646 550.308 155.267 564.233 142.657 C 611.46 99.8911 671.957 55.5962 737.057 49.4028 z"/>
<path transform="translate(0,0)" fill="rgb(0,94,226)" d="M 353.6 391.792 L 365.6 395.883 C 342.038 434.627 317.017 471.987 294.81 511.642 C 232.31 623.249 163.994 783.156 164.98 912.736 C 165.232 945.822 169.536 985.909 194.743 1010.28 C 227.653 1042.1 276.152 1025.73 311.179 1007.18 C 320.242 1002.38 329.162 994.576 339.086 992.073 C 353.076 988.545 403.98 991.006 421.943 990.775 C 396.969 1017.16 370.008 1041.59 341.297 1063.86 C 303.554 1094.81 248.943 1127.84 199.919 1133.28 C 179.501 1135.54 158.279 1131.5 142.071 1118.26 C 118.374 1098.9 110.272 1066.14 107.203 1037.07 C 102.404 991.633 107.475 944.848 115.972 900.156 C 143.956 752.968 212.251 613.167 290.642 486.564 C 310.293 454.826 330.138 420.808 353.6 391.792 z"/>
<path transform="translate(0,0)" fill="rgb(230,0,0)" d="M 412.605 171.258 C 472.407 163.487 527.171 205.707 534.871 265.517 C 542.571 325.328 500.287 380.042 440.467 387.671 C 380.747 395.288 326.145 353.09 318.458 293.379 C 310.77 233.668 352.904 179.016 412.605 171.258 z"/>
<path transform="translate(0,0)" fill="rgb(0,94,226)" d="M 608.88 340.737 C 612.377 342.209 663.612 413.793 670.986 423.243 C 667.066 441.697 659.347 460.795 652.791 478.456 C 631.883 534.783 607.414 591.152 577.783 643.476 C 570.612 630.803 561.263 619.102 552.542 607.463 C 519.215 562.532 486.318 517.285 453.854 471.726 C 473.476 452.526 496.039 435.369 517.078 417.673 C 547.607 391.995 577.734 365.653 608.88 340.737 z"/>
<path transform="translate(0,0)" fill="rgb(0,94,226)" d="M 680.866 866.83 C 691.396 866.761 701.925 866.968 712.443 867.45 C 715.173 881.444 722.118 895.776 727.336 909.063 L 753.621 976.008 C 744.277 976.084 734.933 976.066 725.589 975.952 C 723.836 969.704 723.003 959.343 718.962 954.357 C 716.939 951.861 714.085 952.387 711.19 952.259 L 672.328 952.37 C 670.012 960.678 665.756 968.259 662.422 976.193 C 654.348 975.972 645.719 975.374 637.758 976.851 C 650.554 939.719 666.391 903.359 680.866 866.83 z"/>
<path transform="translate(0,0)" fill="rgb(255,255,255)" d="M 695.034 890.555 C 699.307 894.447 708.826 927.774 711.257 935.069 L 694.32 935.565 C 688.927 935.61 683.451 935.132 678.059 934.876 C 684.361 920.357 690.025 905.569 695.034 890.555 z"/>
<path transform="translate(0,0)" fill="rgb(0,94,226)" d="M 372.176 866.788 C 382.508 866.252 393.157 866.91 403.519 867.026 C 406.41 879.804 412.39 892.537 417.165 904.733 C 426.461 928.48 436.195 952.141 444.647 976.202 C 435.894 975.963 427.099 976.116 418.341 976.1 C 416.222 969.941 413.645 958.256 409.618 953.287 C 408.329 951.696 406.144 952.125 404.25 952.017 C 390.071 951.915 375.894 952.346 361.748 953.309 C 360.338 960.725 358.3 967.96 356.218 975.208 C 347.306 976.225 338.211 975.901 329.248 975.881 C 333.263 962.435 339.415 949.267 344.657 936.238 C 354.043 913.173 363.216 890.022 372.176 866.788 z"/>
<path transform="translate(0,0)" fill="rgb(255,255,255)" d="M 384.871 891.512 C 392.764 897.944 399.533 924.941 403.045 934.931 L 388.98 935.606 L 369.873 935.601 C 375.438 921.103 380.441 906.396 384.871 891.512 z"/>
<path transform="translate(0,0)" fill="rgb(0,94,226)" d="M 508.758 862.406 C 515.183 862.483 521.379 862.898 527.68 864.295 C 549.462 869.125 552.101 879.249 562.657 896.018 C 553.955 897.999 545.715 897.988 536.872 897.665 C 534.381 892.693 532.446 888.684 528.599 884.561 C 526.261 883.878 523.893 883.216 521.498 882.766 C 512.512 881.078 499.073 881.056 491.293 886.678 C 489.283 888.13 487.783 890.262 487.605 892.786 C 487.251 897.817 490.315 901.037 493.508 904.388 C 516.297 911.507 542.087 911.308 560.713 927.869 C 562.184 932.31 563.757 936.806 564.086 941.505 C 564.672 949.876 562.252 957.853 556.698 964.196 C 546.184 976.202 530.783 978.515 515.779 979.556 C 503.756 979.196 489.86 977.595 479.418 971.288 C 468.332 964.592 464.977 954.725 461.964 942.887 C 469.641 942.37 477.318 942.215 485.009 942.042 C 486.251 945.908 488.206 949.281 490.948 952.286 C 496.461 958.328 503.521 959.921 511.435 960.182 C 519.183 960.437 530.132 960.929 535.983 955.204 C 538.877 952.371 540.873 949.599 540.902 945.389 C 536.674 930.367 488.23 928.528 474.162 917.626 C 468.834 913.496 465.097 907.907 464.261 901.129 C 463.274 893.118 466.62 883.938 471.665 877.764 C 480.309 867.181 495.798 863.571 508.758 862.406 z"/>
<path transform="translate(0,0)" fill="rgb(0,94,226)" d="M 248.67 863.204 C 264.05 861.87 278.975 863.476 292.195 872.141 C 303.052 879.258 307.657 888.261 310.26 900.579 C 302.709 901.168 295.231 901.205 287.662 901.171 C 283.242 895.673 278.724 890.253 274.111 884.916 C 269.309 883.823 263.94 883.088 259.01 882.944 C 250.839 882.704 242.714 884.815 236.689 890.57 C 228.61 898.287 226.196 909.592 226.097 920.381 C 225.994 931.697 228.665 943.209 236.914 951.427 C 242.743 957.281 250.733 960.466 258.991 960.227 C 268.333 959.962 274.758 955.198 280.843 948.613 C 283.454 945.341 285.401 941.853 287.408 938.192 C 294.902 938.342 302.393 938.578 309.881 938.9 C 308.186 945.776 306.073 951.904 302.109 957.844 C 294.667 968.997 283.431 975.392 270.446 977.981 C 254.544 981.152 236.565 978.982 222.992 969.676 C 211.705 961.937 205.115 950.124 202.666 936.83 C 199.488 919.578 201.059 899.478 211.351 884.842 C 220.45 871.903 233.55 865.943 248.67 863.204 z"/>
<path transform="translate(0,0)" fill="rgb(0,94,226)" d="M 590.009 866.954 L 613.181 866.868 C 614.03 902.998 614.323 939.732 613.058 975.848 C 605.911 976.935 597.561 976.151 590.274 976.161 C 589.16 939.822 589.793 903.311 590.009 866.954 z"/>
</svg>